<svg width="18" height="19" viewBox="0 0 18 19" fill="none" xmlns="http://www.w3.org/2000/svg">
<g clip-path="url(#clip0_1_825)">
<path d="M6.62811 12.0306V7.81698C6.62811 7.33026 7.19463 7.02261 7.65562 7.25898L11.7645 9.36577C12.2388 9.60899 12.2388 10.2386 11.7645 10.4818L7.65562 12.5886C7.19463 12.8249 6.62811 12.5173 6.62811 12.0306Z" stroke="#1C1C1C" stroke-linecap="round" stroke-linejoin="round"/>
<path d="M1.36917 8.89557C1.33076 9.20716 1.31097 9.52452 1.31097 9.84651C1.31097 10.1685 1.33076 10.4859 1.36917 10.7974" stroke="#1C1C1C" stroke-linecap="round" stroke-linejoin="round"/>
<path d="M4.36139 3.71302C4.61203 3.52396 4.87698 3.34814 5.15583 3.18715C5.43468 3.02616 5.71941 2.88461 6.00847 2.76208" stroke="#1C1C1C" stroke-linecap="round" stroke-linejoin="round"/>
<path d="M1.91638 6.85411C2.0389 6.56505 2.18045 6.28032 2.34145 6.00147C2.50244 5.72262 2.67825 5.45767 2.86732 5.20703" stroke="#1C1C1C" stroke-linecap="round" stroke-linejoin="round"/>
<path d="M9.01455 2.16211C13.253 2.16211 16.689 5.63714 16.689 9.92381C16.689 14.2105 13.253 17.6855 9.01455 17.6855C6.09381 17.6855 3.55415 16.0354 2.25732 13.6066" stroke="#1C1C1C" stroke-linecap="round" stroke-linejoin="round"/>
</g>
<defs>
<clipPath id="clip0_1_825">
<rect width="18" height="18" fill="white" transform="translate(0 0.923828)"/>
</clipPath>
</defs>
</svg>
