<svg width="24" height="21" viewBox="0 0 24 21" fill="none" xmlns="http://www.w3.org/2000/svg">
<path d="M13.9 20.2838V13.4838C13.9 9.96382 14.7 7.08383 16.3 4.84383C17.9 2.55049 20.2467 1.05716 23.34 0.363826V3.96383C21.6333 4.39049 20.38 5.19049 19.58 6.36382C18.78 7.48383 18.2733 8.92383 18.06 10.6838H21.74V20.2838H13.9ZM0.540001 20.2838V13.4838C0.540001 9.96382 1.31333 7.08383 2.86 4.84383C4.46 2.55049 6.80667 1.05716 9.9 0.363826V3.96383C8.24667 4.39049 6.99333 5.19049 6.14 6.36382C5.34 7.48383 4.86 8.92383 4.7 10.6838H8.3V20.2838H0.540001Z" fill="#5DC298"/>
</svg>
